<?xml version="1.0" encoding="UTF-8" standalone="no"?>
<!DOCTYPE svg PUBLIC "-//W3C//DTD SVG 1.1//EN" "http://www.w3.org/Graphics/SVG/1.1/DTD/svg11.dtd">
<svg width="100%" height="100%" viewBox="0 0 1000 1000" version="1.1" xmlns="http://www.w3.org/2000/svg" xmlns:xlink="http://www.w3.org/1999/xlink" xml:space="preserve" xmlns:serif="http://www.serif.com/" style="fill-rule:evenodd;clip-rule:evenodd;stroke-linejoin:round;stroke-miterlimit:2;">
    <g transform="matrix(1,0,0,1,0,-163.123)">
        <g transform="matrix(1,0,0,1.57034,0,162.711)">
            <path d="M1000,112.978C1000,97.162 979.836,84.321 955,84.321L45,84.321C20.164,84.321 0,97.162 0,112.978L0,170.29C0,186.106 20.164,198.946 45,198.946L955,198.946C979.836,198.946 1000,186.106 1000,170.29L1000,112.978Z"/>
        </g>
        <g transform="matrix(1,0,0,1.57034,0,440.709)">
            <path d="M1000,112.978C1000,97.162 979.836,84.321 955,84.321L45,84.321C20.164,84.321 0,97.162 0,112.978L0,170.29C0,186.106 20.164,198.946 45,198.946L955,198.946C979.836,198.946 1000,186.106 1000,170.29L1000,112.978Z"/>
        </g>
        <g transform="matrix(1,0,0,1.57034,0,718.706)">
            <path d="M1000,112.978C1000,97.162 979.836,84.321 955,84.321L45,84.321C20.164,84.321 0,97.162 0,112.978L0,170.29C0,186.106 20.164,198.946 45,198.946L955,198.946C979.836,198.946 1000,186.106 1000,170.29L1000,112.978Z"/>
        </g>
    </g>
</svg>
