<?xml version="1.0" encoding="UTF-8" standalone="no"?>
<!DOCTYPE svg PUBLIC "-//W3C//DTD SVG 1.1//EN" "http://www.w3.org/Graphics/SVG/1.1/DTD/svg11.dtd">
<svg width="100%" height="100%" viewBox="0 0 1000 1000" version="1.1" xmlns="http://www.w3.org/2000/svg" xmlns:xlink="http://www.w3.org/1999/xlink" xml:space="preserve" xmlns:serif="http://www.serif.com/" style="fill-rule:evenodd;clip-rule:evenodd;stroke-linecap:round;stroke-linejoin:round;stroke-miterlimit:1.5;">
    <g transform="matrix(1,0,0,1,-1000,0)">
        <g id="V2-On-Dark" serif:id="V2 On Dark" transform="matrix(1,0,0,1,1000,0)">
            <rect x="0" y="0" width="1000" height="1000" style="fill:none;"/>
            <g transform="matrix(1.52393,0,0,1.52393,-261.966,-328.319)">
                <g transform="matrix(1,0,0,1,0,-16.7671)">
                    <g>
                        <g transform="matrix(0.839056,0,0,1.07143,62.7845,56.9786)">
                            <path d="M828.063,498.024C828.063,416.582 743.631,350.461 639.634,350.461L402.527,350.461C298.53,350.461 214.097,416.582 214.097,498.024C214.097,579.466 298.53,645.586 402.527,645.586L639.634,645.586C743.631,645.586 828.063,579.466 828.063,498.024Z" style="fill:none;stroke:rgb(245,230,254);stroke-width:64.03px;"/>
                        </g>
                        <g transform="matrix(-0.661169,-8.09698e-17,7.21331e-17,-0.589012,1554.88,1359.01)">
                            <path d="M1707.06,798.973L1601.45,1036.2L1352.59,1036.2C1431.48,921.313 1543.14,836.312 1707.06,798.973Z" style="fill:rgb(245,230,254);"/>
                        </g>
                        <g transform="matrix(1,0,0,1,2.63505,0)">
                            <g transform="matrix(1,0,0,1,18.4453,-2.96866)">
                                <path d="M432.806,552.042C432.806,536.772 420.409,524.374 405.138,524.374C389.868,524.374 377.47,536.772 377.47,552.042L377.47,635.046C377.47,650.316 389.868,662.714 405.138,662.714C420.409,662.714 432.806,650.316 432.806,635.046L432.806,552.042Z" style="fill:rgb(215,154,253);"/>
                            </g>
                            <g transform="matrix(1,0,0,1,166.008,-2.96866)">
                                <path d="M432.806,552.042C432.806,536.772 420.409,524.374 405.138,524.374C389.868,524.374 377.47,536.772 377.47,552.042L377.47,635.046C377.47,650.316 389.868,662.714 405.138,662.714C420.409,662.714 432.806,650.316 432.806,635.046L432.806,552.042Z" style="fill:rgb(215,154,253);"/>
                            </g>
                        </g>
                    </g>
                </g>
                <g transform="matrix(1,0,0,1,-976.943,-13.6448)">
                    <path d="M1500,335.477C1500,329.114 1494.83,323.949 1488.47,323.949L1465.41,323.949C1459.05,323.949 1453.89,329.114 1453.89,335.477L1453.89,417.822C1453.89,424.185 1459.05,429.35 1465.41,429.35L1488.47,429.35C1494.83,429.35 1500,424.185 1500,417.822L1500,335.477Z" style="fill:rgb(245,230,254);"/>
                </g>
                <g transform="matrix(1,0,0,1,-1000,31.1509)">
                    <circle cx="1500" cy="258.073" r="73.781" style="fill:rgb(245,230,254);"/>
                </g>
            </g>
        </g>
    </g>
</svg>
