<svg viewBox="0 0 1000 1000" xmlns="http://www.w3.org/2000/svg" xml:space="preserve" fill-rule="evenodd" clip-rule="evenodd" stroke-linecap="round" stroke-linejoin="round" stroke-miterlimit="1.5"><path fill="none" d="M0 0h1000v1000H0z"/><path d="M828.063 498.024c0-81.442-84.432-147.563-188.429-147.563H402.527c-103.997 0-188.43 66.121-188.43 147.563s84.433 147.562 188.43 147.562h237.107c103.997 0 188.429-66.12 188.429-147.562Z" fill="none" stroke="#000" stroke-width="73.09" transform="matrix(1.12015 0 0 1.43037 -83.68606465 -171.94924538)"/><path d="m401.5104328 938.01373384 93.21848582-186.54034618h219.66056603c-69.63361751 90.3398886-168.19224004 157.1793123-312.87905184 186.54034618ZM438.43881611 485.00215346c0-20.3856027-16.55011897-36.93705668-36.93705668-36.93705668-20.3856027 0-36.93705668 16.55145398-36.93705668 36.93705668V595.8133235c0 20.3856027 16.55145398 36.93705668 36.93705668 36.93705668 20.38693771 0 36.93705668-16.55145398 36.93705668-36.93705668V485.00215346ZM635.43649624 485.00215346c0-20.3856027-16.55011897-36.93705668-36.93705668-36.93705668-20.3856027 0-36.93705668 16.55145398-36.93705668 36.93705668V595.8133235c0 20.3856027 16.55145398 36.93705668 36.93705668 36.93705668 20.38693771 0 36.93705668-16.55145398 36.93705668-36.93705668V485.00215346ZM530.78232557 204.01720532c0-8.49466863-6.9020017-15.38999528-15.3926653-15.38999528h-30.7853306c-8.4906636 0-15.3793152 6.89532665-15.3793152 15.38999528v109.93139845c0 8.49466863 6.8886516 15.38999528 15.3793152 15.38999528h30.7853306c8.4906636 0 15.3926653-6.89532665 15.3926653-15.38999528V204.01720532Z"/><circle cx="1500" cy="258.073" r="73.781" transform="translate(-1502.514 -184.045237) scale(1.33501)"/></svg>